<svg xmlns="http://www.w3.org/2000/svg" xmlns:xlink="http://www.w3.org/1999/xlink" width="2000" zoomAndPan="magnify" viewBox="0 0 1500 1499.999933" height="2000" preserveAspectRatio="xMidYMid meet" version="1.0"><defs><g/><clipPath id="120b9ae053"><rect x="0" width="830" y="0" height="172"/></clipPath></defs><rect x="-150" width="1800" fill="#ffffff" y="-149.999993" height="1799.99992" fill-opacity="1"/><rect x="-150" width="1800" fill="#fefefe" y="-149.999993" height="1799.99992" fill-opacity="1"/><path fill="#737373" d="M 249.113281 734.078125 L 207.574219 662.414062 L 228.230469 650.488281 L 248.882812 686.257812 L 290.8125 614.144531 L 311.46875 626.070312 Z M 249.113281 734.078125 " fill-opacity="1" fill-rule="evenodd"/><path fill="#737373" d="M 397.464844 847.375 L 335.925781 740.777344 L 362.648438 740.738281 C 381.101562 740.707031 399.558594 740.679688 418.015625 740.640625 L 418.757812 740.636719 C 418.757812 748.589844 418.761719 756.539062 418.753906 764.488281 L 360.996094 764.488281 L 359.117188 761.234375 L 415.503906 761.234375 L 415.503906 743.890625 L 341.550781 744.015625 L 399.46875 844.335938 L 414.492188 835.664062 L 386.3125 786.855469 L 389.128906 785.230469 C 399.070312 802.4375 409 819.648438 418.9375 836.855469 L 398.28125 848.78125 Z M 397.464844 847.375 " fill-opacity="1" fill-rule="nonzero"/><path fill="#737373" d="M 419.964844 711.675781 L 296.882812 711.675781 L 310.152344 688.605469 C 319.371094 672.574219 328.59375 656.542969 337.804688 640.511719 L 338.175781 639.867188 L 358.832031 651.792969 C 349.210938 668.46875 339.578125 685.144531 329.949219 701.816406 L 326.195312 701.816406 L 354.390625 652.980469 L 339.367188 644.308594 L 302.496094 708.414062 L 418.335938 708.414062 L 418.335938 691.074219 L 361.976562 691.074219 L 361.976562 687.816406 L 421.59375 687.816406 L 421.59375 711.675781 Z M 419.964844 711.675781 " fill-opacity="1" fill-rule="nonzero"/><path fill="#737373" d="M 185.507812 680.164062 L 247.050781 786.757812 L 220.328125 786.796875 C 201.871094 786.828125 183.414062 786.855469 164.957031 786.894531 L 164.21875 786.898438 C 164.222656 778.945312 164.21875 770.996094 164.21875 763.046875 L 221.976562 763.046875 L 223.855469 766.300781 L 167.46875 766.300781 L 167.46875 783.644531 L 241.425781 783.519531 L 183.503906 683.199219 L 168.484375 691.871094 L 196.660156 740.679688 L 193.84375 742.304688 L 164.039062 690.679688 C 170.925781 686.707031 177.8125 682.738281 184.695312 678.753906 Z M 185.507812 680.164062 " fill-opacity="1" fill-rule="nonzero"/><path fill="#737373" d="M 164.476562 815.144531 L 287.558594 815.144531 L 274.824219 837.285156 C 265.425781 853.625 256.023438 869.964844 246.636719 886.304688 L 246.265625 886.949219 L 225.609375 875.023438 C 235.246094 858.355469 244.882812 841.683594 254.492188 825 L 258.246094 825 L 230.050781 873.835938 L 245.074219 882.511719 L 281.941406 818.402344 L 166.105469 818.402344 L 166.105469 835.742188 L 222.464844 835.742188 L 222.464844 839 L 162.847656 839 L 162.847656 815.144531 Z M 164.476562 815.144531 " fill-opacity="1" fill-rule="nonzero"/><path fill="#737373" d="M 271.847656 897.300781 L 333.390625 790.703125 L 346.085938 812.613281 C 355.570312 828.984375 365.058594 845.359375 374.554688 861.726562 L 374.929688 862.367188 C 368.042969 866.339844 361.152344 870.3125 354.273438 874.292969 L 325.390625 824.273438 L 327.269531 821.023438 L 355.460938 869.855469 L 370.484375 861.183594 L 333.398438 797.195312 L 275.480469 897.515625 L 290.5 906.1875 L 318.679688 857.382812 L 321.5 859.011719 C 311.550781 876.210938 301.613281 893.421875 291.691406 910.636719 L 271.035156 898.707031 Z M 271.847656 897.300781 " fill-opacity="1" fill-rule="nonzero"/><path fill="#737373" d="M 296.882812 711.675781 L 338.175781 639.867188 L 358.832031 651.796875 L 338.179688 687.5625 L 421.59375 687.820312 L 421.59375 711.671875 Z M 296.882812 711.675781 " fill-opacity="1" fill-rule="evenodd"/><path fill="#737373" d="M 335.652344 740.308594 L 418.484375 740.167969 L 418.484375 764.019531 L 377.179688 764.019531 L 418.664062 836.386719 L 398.007812 848.308594 Z M 335.652344 740.308594 " fill-opacity="1" fill-rule="evenodd"/><path fill="#737373" d="M 333.390625 790.703125 L 374.925781 862.367188 L 354.273438 874.292969 L 333.621094 838.523438 L 291.691406 910.636719 L 271.035156 898.710938 Z M 333.390625 790.703125 " fill-opacity="1" fill-rule="evenodd"/><path fill="#737373" d="M 287.558594 815.144531 L 246.265625 886.949219 L 225.609375 875.023438 L 246.261719 839.253906 L 162.847656 838.996094 L 162.847656 815.144531 Z M 287.558594 815.144531 " fill-opacity="1" fill-rule="evenodd"/><path fill="#737373" d="M 247.050781 786.753906 L 164.21875 786.894531 L 164.21875 763.042969 L 205.519531 763.042969 L 164.035156 690.675781 L 184.691406 678.753906 Z M 247.050781 786.753906 " fill-opacity="1" fill-rule="evenodd"/><path fill="#5cc6d0" d="M 292.222656 780.222656 C 302.070312 780.222656 310.054688 772.238281 310.054688 762.390625 C 310.054688 752.542969 302.070312 744.558594 292.222656 744.558594 C 282.371094 744.558594 274.386719 752.542969 274.386719 762.390625 C 274.386719 772.238281 282.371094 780.222656 292.222656 780.222656 Z M 292.222656 780.222656 " fill-opacity="1" fill-rule="evenodd"/><g transform="matrix(1, 0, 0, 1, 555, 670)"><g clip-path="url(#120b9ae053)"><g fill="#737373" fill-opacity="1"><g transform="translate(5.818525, 111.509828)"><g><path d="M 66.125 0 L 52.796875 0 L 3.921875 -97.90625 L 13.890625 -97.90625 L 59.703125 -6.125 L 105.515625 -97.90625 L 115.421875 -97.90625 Z M 66.125 0 "/></g></g></g><g fill="#737373" fill-opacity="1"><g transform="translate(164.12676, 111.509828)"><g><path d="M 16.453125 0 L 16.453125 -97.90625 L 98.046875 -97.90625 L 98.046875 -89.5625 L 26.15625 -89.5625 L 26.15625 -55.859375 L 94.40625 -55.859375 L 94.40625 -47.59375 L 26.15625 -47.59375 L 26.15625 -8.34375 L 99.109375 -8.34375 L 99.109375 0 Z M 16.453125 0 "/></g></g></g><g fill="#737373" fill-opacity="1"><g transform="translate(313.243543, 111.509828)"><g><path d="M 16.453125 0 L 16.453125 -97.90625 L 25.359375 -97.90625 L 25.359375 -8.34375 L 96.90625 -8.34375 L 96.90625 0 Z M 16.453125 0 "/></g></g></g><g fill="#737373" fill-opacity="1"><g transform="translate(454.522693, 111.509828)"><g><path d="M 114.421875 -30.78125 C 114.421875 -25.882812 113.390625 -21.429688 111.328125 -17.421875 C 109.265625 -13.410156 106.175781 -9.96875 102.0625 -7.09375 C 97.957031 -4.21875 92.816406 -1.992188 86.640625 -0.421875 C 80.460938 1.140625 73.265625 1.921875 65.046875 1.921875 C 56.828125 1.921875 49.628906 1.140625 43.453125 -0.421875 C 37.285156 -1.992188 32.132812 -4.21875 28 -7.09375 C 23.863281 -9.96875 20.765625 -13.410156 18.703125 -17.421875 C 16.640625 -21.429688 15.609375 -25.882812 15.609375 -30.78125 L 15.609375 -97.90625 L 24.515625 -97.90625 L 24.515625 -30.0625 C 24.515625 -26.789062 25.378906 -23.691406 27.109375 -20.765625 C 28.847656 -17.847656 31.425781 -15.296875 34.84375 -13.109375 C 38.257812 -10.921875 42.484375 -9.1875 47.515625 -7.90625 C 52.554688 -6.625 58.398438 -5.984375 65.046875 -5.984375 C 71.648438 -5.984375 77.46875 -6.625 82.5 -7.90625 C 87.539062 -9.1875 91.769531 -10.921875 95.1875 -13.109375 C 98.613281 -15.296875 101.191406 -17.847656 102.921875 -20.765625 C 104.648438 -23.691406 105.515625 -26.789062 105.515625 -30.0625 L 105.515625 -97.90625 L 114.421875 -97.90625 Z M 114.421875 -30.78125 "/></g></g></g><g fill="#737373" fill-opacity="1"><g transform="translate(623.518661, 111.509828)"><g><path d="M 140.9375 0 L 140.9375 -83.296875 L 87.140625 0 L 79.234375 0 L 25.359375 -83.65625 L 25.359375 0 L 16.453125 0 L 16.453125 -97.90625 L 26 -97.90625 L 83.4375 -9.1875 L 140.21875 -97.90625 L 149.703125 -97.90625 L 149.703125 0 Z M 140.9375 0 "/></g></g></g><g fill="#737373" fill-opacity="1"><g transform="translate(0.526823, 165.665544)"><g><path d="M 23.765625 -12.234375 C 23.765625 -11.304688 23.628906 -10.453125 23.359375 -9.671875 C 23.085938 -8.890625 22.648438 -8.21875 22.046875 -7.65625 C 21.453125 -7.09375 20.675781 -6.648438 19.71875 -6.328125 C 18.769531 -6.015625 17.609375 -5.859375 16.234375 -5.859375 L 7.921875 -5.859375 L 7.921875 0 L 2.90625 0 L 2.90625 -18.5625 L 16.234375 -18.5625 C 17.609375 -18.5625 18.769531 -18.40625 19.71875 -18.09375 C 20.675781 -17.78125 21.453125 -17.34375 22.046875 -16.78125 C 22.648438 -16.21875 23.085938 -15.550781 23.359375 -14.78125 C 23.628906 -14.007812 23.765625 -13.160156 23.765625 -12.234375 Z M 18.703125 -12.140625 C 18.703125 -12.578125 18.640625 -12.953125 18.515625 -13.265625 C 18.390625 -13.578125 18.1875 -13.832031 17.90625 -14.03125 C 17.632812 -14.226562 17.269531 -14.375 16.8125 -14.46875 C 16.363281 -14.5625 15.8125 -14.609375 15.15625 -14.609375 L 7.921875 -14.609375 L 7.921875 -9.828125 L 15.15625 -9.828125 C 15.8125 -9.828125 16.363281 -9.863281 16.8125 -9.9375 C 17.269531 -10.007812 17.632812 -10.140625 17.90625 -10.328125 C 18.1875 -10.515625 18.390625 -10.753906 18.515625 -11.046875 C 18.640625 -11.347656 18.703125 -11.710938 18.703125 -12.140625 Z M 18.703125 -12.140625 "/></g></g></g><g fill="#737373" fill-opacity="1"><g transform="translate(32.917369, 165.665544)"><g><path d="M 7.921875 0 L 2.90625 0 L 2.90625 -18.5625 L 15.46875 -18.5625 C 16.820312 -18.5625 17.96875 -18.421875 18.90625 -18.140625 C 19.851562 -17.867188 20.617188 -17.472656 21.203125 -16.953125 C 21.796875 -16.441406 22.222656 -15.820312 22.484375 -15.09375 C 22.753906 -14.375 22.890625 -13.566406 22.890625 -12.671875 C 22.890625 -11.890625 22.78125 -11.203125 22.5625 -10.609375 C 22.34375 -10.023438 22.046875 -9.523438 21.671875 -9.109375 C 21.296875 -8.691406 20.859375 -8.335938 20.359375 -8.046875 C 19.867188 -7.765625 19.347656 -7.53125 18.796875 -7.34375 L 24.875 0 L 19.015625 0 L 13.390625 -6.84375 L 7.921875 -6.84375 Z M 17.828125 -12.703125 C 17.828125 -13.054688 17.773438 -13.359375 17.671875 -13.609375 C 17.578125 -13.867188 17.410156 -14.078125 17.171875 -14.234375 C 16.941406 -14.390625 16.628906 -14.503906 16.234375 -14.578125 C 15.847656 -14.648438 15.363281 -14.6875 14.78125 -14.6875 L 7.921875 -14.6875 L 7.921875 -10.71875 L 14.78125 -10.71875 C 15.363281 -10.71875 15.847656 -10.753906 16.234375 -10.828125 C 16.628906 -10.898438 16.941406 -11.015625 17.171875 -11.171875 C 17.410156 -11.328125 17.578125 -11.53125 17.671875 -11.78125 C 17.773438 -12.03125 17.828125 -12.335938 17.828125 -12.703125 Z M 17.828125 -12.703125 "/></g></g></g><g fill="#737373" fill-opacity="1"><g transform="translate(65.726654, 165.665544)"><g><path d="M 26.921875 -9.265625 C 26.921875 -7.671875 26.628906 -6.265625 26.046875 -5.046875 C 25.460938 -3.828125 24.625 -2.804688 23.53125 -1.984375 C 22.445312 -1.160156 21.125 -0.539062 19.5625 -0.125 C 18.007812 0.289062 16.265625 0.5 14.328125 0.5 C 12.398438 0.5 10.65625 0.289062 9.09375 -0.125 C 7.53125 -0.539062 6.195312 -1.160156 5.09375 -1.984375 C 4 -2.804688 3.148438 -3.828125 2.546875 -5.046875 C 1.953125 -6.265625 1.65625 -7.671875 1.65625 -9.265625 C 1.65625 -10.859375 1.953125 -12.265625 2.546875 -13.484375 C 3.148438 -14.710938 4 -15.734375 5.09375 -16.546875 C 6.195312 -17.367188 7.53125 -17.988281 9.09375 -18.40625 C 10.65625 -18.820312 12.398438 -19.03125 14.328125 -19.03125 C 16.265625 -19.03125 18.007812 -18.820312 19.5625 -18.40625 C 21.125 -17.988281 22.445312 -17.367188 23.53125 -16.546875 C 24.625 -15.734375 25.460938 -14.710938 26.046875 -13.484375 C 26.628906 -12.265625 26.921875 -10.859375 26.921875 -9.265625 Z M 21.859375 -9.265625 C 21.859375 -9.960938 21.75 -10.65625 21.53125 -11.34375 C 21.3125 -12.03125 20.921875 -12.648438 20.359375 -13.203125 C 19.796875 -13.753906 19.023438 -14.195312 18.046875 -14.53125 C 17.078125 -14.875 15.835938 -15.046875 14.328125 -15.046875 C 13.328125 -15.046875 12.441406 -14.96875 11.671875 -14.8125 C 10.910156 -14.65625 10.25 -14.4375 9.6875 -14.15625 C 9.125 -13.875 8.65625 -13.546875 8.28125 -13.171875 C 7.90625 -12.804688 7.601562 -12.410156 7.375 -11.984375 C 7.15625 -11.554688 6.992188 -11.109375 6.890625 -10.640625 C 6.796875 -10.171875 6.75 -9.710938 6.75 -9.265625 C 6.75 -8.804688 6.796875 -8.34375 6.890625 -7.875 C 6.992188 -7.40625 7.15625 -6.957031 7.375 -6.53125 C 7.601562 -6.101562 7.90625 -5.703125 8.28125 -5.328125 C 8.65625 -4.960938 9.125 -4.640625 9.6875 -4.359375 C 10.25 -4.085938 10.910156 -3.875 11.671875 -3.71875 C 12.441406 -3.5625 13.328125 -3.484375 14.328125 -3.484375 C 15.835938 -3.484375 17.078125 -3.65625 18.046875 -4 C 19.023438 -4.34375 19.796875 -4.785156 20.359375 -5.328125 C 20.921875 -5.878906 21.3125 -6.5 21.53125 -7.1875 C 21.75 -7.882812 21.859375 -8.578125 21.859375 -9.265625 Z M 21.859375 -9.265625 "/></g></g></g><g fill="#737373" fill-opacity="1"><g transform="translate(101.696839, 165.665544)"><g><path d="M 16.34375 -6.859375 C 16.34375 -5.628906 16.140625 -4.566406 15.734375 -3.671875 C 15.335938 -2.785156 14.753906 -2.050781 13.984375 -1.46875 C 13.222656 -0.894531 12.28125 -0.46875 11.15625 -0.1875 C 10.039062 0.0820312 8.769531 0.21875 7.34375 0.21875 C 6.664062 0.21875 5.96875 0.179688 5.25 0.109375 C 4.539062 0.046875 3.859375 -0.03125 3.203125 -0.125 C 2.546875 -0.226562 1.9375 -0.335938 1.375 -0.453125 C 0.820312 -0.566406 0.363281 -0.671875 0 -0.765625 L 0 -5.125 C 0.375 -4.96875 0.785156 -4.8125 1.234375 -4.65625 C 1.691406 -4.5 2.195312 -4.359375 2.75 -4.234375 C 3.300781 -4.109375 3.910156 -4.003906 4.578125 -3.921875 C 5.253906 -3.835938 6 -3.796875 6.8125 -3.796875 C 7.6875 -3.796875 8.410156 -3.890625 8.984375 -4.078125 C 9.566406 -4.273438 10.035156 -4.546875 10.390625 -4.890625 C 10.742188 -5.242188 10.988281 -5.65625 11.125 -6.125 C 11.269531 -6.59375 11.34375 -7.101562 11.34375 -7.65625 L 11.34375 -18.5625 L 16.34375 -18.5625 Z M 16.34375 -6.859375 "/></g></g></g><g fill="#737373" fill-opacity="1"><g transform="translate(128.197856, 165.665544)"><g><path d="M 2.90625 0 L 2.90625 -18.5625 L 21.703125 -18.5625 L 21.703125 -14.609375 L 8.046875 -14.609375 L 8.046875 -11.53125 L 21 -11.53125 L 21 -7.578125 L 8.046875 -7.578125 L 8.046875 -3.953125 L 21.890625 -3.953125 L 21.890625 0 Z M 2.90625 0 "/></g></g></g><g fill="#737373" fill-opacity="1"><g transform="translate(159.399697, 165.665544)"><g><path d="M 13.3125 -14.53125 L 13.3125 0 L 8.296875 0 L 8.296875 -14.53125 L 0.421875 -14.53125 L 0.421875 -18.5625 L 21.203125 -18.5625 L 21.203125 -14.53125 Z M 13.3125 -14.53125 "/></g></g></g><g fill="#737373" fill-opacity="1"><g transform="translate(187.305519, 165.665544)"><g><path d="M 17.828125 -3.515625 L 7.46875 -3.515625 L 5.734375 0 L 0.140625 0 L 9.84375 -18.5625 L 15.4375 -18.5625 L 25.15625 0 L 19.5625 0 Z M 9.265625 -7.140625 L 16.046875 -7.140625 L 12.671875 -13.96875 Z M 9.265625 -7.140625 "/></g></g></g><g fill="#737373" fill-opacity="1"><g transform="translate(219.979723, 165.665544)"><g><path d="M 7.921875 0 L 2.90625 0 L 2.90625 -18.5625 L 15.46875 -18.5625 C 16.820312 -18.5625 17.96875 -18.421875 18.90625 -18.140625 C 19.851562 -17.867188 20.617188 -17.472656 21.203125 -16.953125 C 21.796875 -16.441406 22.222656 -15.820312 22.484375 -15.09375 C 22.753906 -14.375 22.890625 -13.566406 22.890625 -12.671875 C 22.890625 -11.890625 22.78125 -11.203125 22.5625 -10.609375 C 22.34375 -10.023438 22.046875 -9.523438 21.671875 -9.109375 C 21.296875 -8.691406 20.859375 -8.335938 20.359375 -8.046875 C 19.867188 -7.765625 19.347656 -7.53125 18.796875 -7.34375 L 24.875 0 L 19.015625 0 L 13.390625 -6.84375 L 7.921875 -6.84375 Z M 17.828125 -12.703125 C 17.828125 -13.054688 17.773438 -13.359375 17.671875 -13.609375 C 17.578125 -13.867188 17.410156 -14.078125 17.171875 -14.234375 C 16.941406 -14.390625 16.628906 -14.503906 16.234375 -14.578125 C 15.847656 -14.648438 15.363281 -14.6875 14.78125 -14.6875 L 7.921875 -14.6875 L 7.921875 -10.71875 L 14.78125 -10.71875 C 15.363281 -10.71875 15.847656 -10.753906 16.234375 -10.828125 C 16.628906 -10.898438 16.941406 -11.015625 17.171875 -11.171875 C 17.410156 -11.328125 17.578125 -11.53125 17.671875 -11.78125 C 17.773438 -12.03125 17.828125 -12.335938 17.828125 -12.703125 Z M 17.828125 -12.703125 "/></g></g></g><g fill="#737373" fill-opacity="1"><g transform="translate(252.924104, 165.665544)"><g><path d="M 1.375 0 L 1.375 -4.859375 L 6.5 -4.859375 L 6.5 0 Z M 1.375 0 "/></g></g></g><g fill="#737373" fill-opacity="1"><g transform="translate(268.199872, 165.665544)"><g/></g></g><g fill="#737373" fill-opacity="1"><g transform="translate(285.988168, 165.665544)"><g><path d="M 26.515625 0 L 26.515625 -13.03125 L 19.625 0 L 14.8125 0 L 7.921875 -13.03125 L 7.921875 0 L 2.90625 0 L 2.90625 -18.5625 L 9.71875 -18.5625 L 17.21875 -4.515625 L 24.71875 -18.5625 L 31.5 -18.5625 L 31.5 0 Z M 26.515625 0 "/></g></g></g><g fill="#737373" fill-opacity="1"><g transform="translate(327.766832, 165.665544)"><g><path d="M 26.921875 -9.265625 C 26.921875 -7.671875 26.628906 -6.265625 26.046875 -5.046875 C 25.460938 -3.828125 24.625 -2.804688 23.53125 -1.984375 C 22.445312 -1.160156 21.125 -0.539062 19.5625 -0.125 C 18.007812 0.289062 16.265625 0.5 14.328125 0.5 C 12.398438 0.5 10.65625 0.289062 9.09375 -0.125 C 7.53125 -0.539062 6.195312 -1.160156 5.09375 -1.984375 C 4 -2.804688 3.148438 -3.828125 2.546875 -5.046875 C 1.953125 -6.265625 1.65625 -7.671875 1.65625 -9.265625 C 1.65625 -10.859375 1.953125 -12.265625 2.546875 -13.484375 C 3.148438 -14.710938 4 -15.734375 5.09375 -16.546875 C 6.195312 -17.367188 7.53125 -17.988281 9.09375 -18.40625 C 10.65625 -18.820312 12.398438 -19.03125 14.328125 -19.03125 C 16.265625 -19.03125 18.007812 -18.820312 19.5625 -18.40625 C 21.125 -17.988281 22.445312 -17.367188 23.53125 -16.546875 C 24.625 -15.734375 25.460938 -14.710938 26.046875 -13.484375 C 26.628906 -12.265625 26.921875 -10.859375 26.921875 -9.265625 Z M 21.859375 -9.265625 C 21.859375 -9.960938 21.75 -10.65625 21.53125 -11.34375 C 21.3125 -12.03125 20.921875 -12.648438 20.359375 -13.203125 C 19.796875 -13.753906 19.023438 -14.195312 18.046875 -14.53125 C 17.078125 -14.875 15.835938 -15.046875 14.328125 -15.046875 C 13.328125 -15.046875 12.441406 -14.96875 11.671875 -14.8125 C 10.910156 -14.65625 10.25 -14.4375 9.6875 -14.15625 C 9.125 -13.875 8.65625 -13.546875 8.28125 -13.171875 C 7.90625 -12.804688 7.601562 -12.410156 7.375 -11.984375 C 7.15625 -11.554688 6.992188 -11.109375 6.890625 -10.640625 C 6.796875 -10.171875 6.75 -9.710938 6.75 -9.265625 C 6.75 -8.804688 6.796875 -8.34375 6.890625 -7.875 C 6.992188 -7.40625 7.15625 -6.957031 7.375 -6.53125 C 7.601562 -6.101562 7.90625 -5.703125 8.28125 -5.328125 C 8.65625 -4.960938 9.125 -4.640625 9.6875 -4.359375 C 10.25 -4.085938 10.910156 -3.875 11.671875 -3.71875 C 12.441406 -3.5625 13.328125 -3.484375 14.328125 -3.484375 C 15.835938 -3.484375 17.078125 -3.65625 18.046875 -4 C 19.023438 -4.34375 19.796875 -4.785156 20.359375 -5.328125 C 20.921875 -5.878906 21.3125 -6.5 21.53125 -7.1875 C 21.75 -7.882812 21.859375 -8.578125 21.859375 -9.265625 Z M 21.859375 -9.265625 "/></g></g></g><g fill="#737373" fill-opacity="1"><g transform="translate(363.73704, 165.665544)"><g><path d="M 20.4375 0 L 7.921875 -12.75 L 7.921875 0 L 2.90625 0 L 2.90625 -18.5625 L 8.34375 -18.5625 L 20.890625 -5.75 L 20.890625 -18.5625 L 25.875 -18.5625 L 25.875 0 Z M 20.4375 0 "/></g></g></g><g fill="#737373" fill-opacity="1"><g transform="translate(399.896338, 165.665544)"><g><path d="M 13.3125 -14.53125 L 13.3125 0 L 8.296875 0 L 8.296875 -14.53125 L 0.421875 -14.53125 L 0.421875 -18.5625 L 21.203125 -18.5625 L 21.203125 -14.53125 Z M 13.3125 -14.53125 "/></g></g></g><g fill="#737373" fill-opacity="1"><g transform="translate(427.80216, 165.665544)"><g><path d="M 17.828125 -3.515625 L 7.46875 -3.515625 L 5.734375 0 L 0.140625 0 L 9.84375 -18.5625 L 15.4375 -18.5625 L 25.15625 0 L 19.5625 0 Z M 9.265625 -7.140625 L 16.046875 -7.140625 L 12.671875 -13.96875 Z M 9.265625 -7.140625 "/></g></g></g><g fill="#737373" fill-opacity="1"><g transform="translate(460.476379, 165.665544)"><g><path d="M 7.921875 0 L 2.90625 0 L 2.90625 -18.5625 L 15.46875 -18.5625 C 16.820312 -18.5625 17.96875 -18.421875 18.90625 -18.140625 C 19.851562 -17.867188 20.617188 -17.472656 21.203125 -16.953125 C 21.796875 -16.441406 22.222656 -15.820312 22.484375 -15.09375 C 22.753906 -14.375 22.890625 -13.566406 22.890625 -12.671875 C 22.890625 -11.890625 22.78125 -11.203125 22.5625 -10.609375 C 22.34375 -10.023438 22.046875 -9.523438 21.671875 -9.109375 C 21.296875 -8.691406 20.859375 -8.335938 20.359375 -8.046875 C 19.867188 -7.765625 19.347656 -7.53125 18.796875 -7.34375 L 24.875 0 L 19.015625 0 L 13.390625 -6.84375 L 7.921875 -6.84375 Z M 17.828125 -12.703125 C 17.828125 -13.054688 17.773438 -13.359375 17.671875 -13.609375 C 17.578125 -13.867188 17.410156 -14.078125 17.171875 -14.234375 C 16.941406 -14.390625 16.628906 -14.503906 16.234375 -14.578125 C 15.847656 -14.648438 15.363281 -14.6875 14.78125 -14.6875 L 7.921875 -14.6875 L 7.921875 -10.71875 L 14.78125 -10.71875 C 15.363281 -10.71875 15.847656 -10.753906 16.234375 -10.828125 C 16.628906 -10.898438 16.941406 -11.015625 17.171875 -11.171875 C 17.410156 -11.328125 17.578125 -11.53125 17.671875 -11.78125 C 17.773438 -12.03125 17.828125 -12.335938 17.828125 -12.703125 Z M 17.828125 -12.703125 "/></g></g></g><g fill="#737373" fill-opacity="1"><g transform="translate(493.420745, 165.665544)"><g><path d="M 1.375 0 L 1.375 -4.859375 L 6.5 -4.859375 L 6.5 0 Z M 1.375 0 "/></g></g></g><g fill="#737373" fill-opacity="1"><g transform="translate(508.696513, 165.665544)"><g/></g></g><g fill="#737373" fill-opacity="1"><g transform="translate(526.484809, 165.665544)"><g><path d="M 2.90625 0 L 2.90625 -18.5625 L 21.703125 -18.5625 L 21.703125 -14.609375 L 8.046875 -14.609375 L 8.046875 -11.53125 L 21 -11.53125 L 21 -7.578125 L 8.046875 -7.578125 L 8.046875 -3.953125 L 21.890625 -3.953125 L 21.890625 0 Z M 2.90625 0 "/></g></g></g><g fill="#737373" fill-opacity="1"><g transform="translate(557.686679, 165.665544)"><g><path d="M 20.4375 0 L 7.921875 -12.75 L 7.921875 0 L 2.90625 0 L 2.90625 -18.5625 L 8.34375 -18.5625 L 20.890625 -5.75 L 20.890625 -18.5625 L 25.875 -18.5625 L 25.875 0 Z M 20.4375 0 "/></g></g></g><g fill="#737373" fill-opacity="1"><g transform="translate(593.845977, 165.665544)"><g><path d="M 13.3125 -14.53125 L 13.3125 0 L 8.296875 0 L 8.296875 -14.53125 L 0.421875 -14.53125 L 0.421875 -18.5625 L 21.203125 -18.5625 L 21.203125 -14.53125 Z M 13.3125 -14.53125 "/></g></g></g><g fill="#737373" fill-opacity="1"><g transform="translate(622.832476, 165.665544)"><g><path d="M 7.921875 0 L 2.90625 0 L 2.90625 -18.5625 L 15.46875 -18.5625 C 16.820312 -18.5625 17.96875 -18.421875 18.90625 -18.140625 C 19.851562 -17.867188 20.617188 -17.472656 21.203125 -16.953125 C 21.796875 -16.441406 22.222656 -15.820312 22.484375 -15.09375 C 22.753906 -14.375 22.890625 -13.566406 22.890625 -12.671875 C 22.890625 -11.890625 22.78125 -11.203125 22.5625 -10.609375 C 22.34375 -10.023438 22.046875 -9.523438 21.671875 -9.109375 C 21.296875 -8.691406 20.859375 -8.335938 20.359375 -8.046875 C 19.867188 -7.765625 19.347656 -7.53125 18.796875 -7.34375 L 24.875 0 L 19.015625 0 L 13.390625 -6.84375 L 7.921875 -6.84375 Z M 17.828125 -12.703125 C 17.828125 -13.054688 17.773438 -13.359375 17.671875 -13.609375 C 17.578125 -13.867188 17.410156 -14.078125 17.171875 -14.234375 C 16.941406 -14.390625 16.628906 -14.503906 16.234375 -14.578125 C 15.847656 -14.648438 15.363281 -14.6875 14.78125 -14.6875 L 7.921875 -14.6875 L 7.921875 -10.71875 L 14.78125 -10.71875 C 15.363281 -10.71875 15.847656 -10.753906 16.234375 -10.828125 C 16.628906 -10.898438 16.941406 -11.015625 17.171875 -11.171875 C 17.410156 -11.328125 17.578125 -11.53125 17.671875 -11.78125 C 17.773438 -12.03125 17.828125 -12.335938 17.828125 -12.703125 Z M 17.828125 -12.703125 "/></g></g></g><g fill="#737373" fill-opacity="1"><g transform="translate(655.776812, 165.665544)"><g><path d="M 2.90625 0 L 2.90625 -18.5625 L 21.703125 -18.5625 L 21.703125 -14.609375 L 8.046875 -14.609375 L 8.046875 -11.53125 L 21 -11.53125 L 21 -7.578125 L 8.046875 -7.578125 L 8.046875 -3.953125 L 21.890625 -3.953125 L 21.890625 0 Z M 2.90625 0 "/></g></g></g><g fill="#737373" fill-opacity="1"><g transform="translate(686.978682, 165.665544)"><g><path d="M 14.859375 -19.03125 C 16.679688 -19.03125 18.375 -18.875 19.9375 -18.5625 C 21.5 -18.257812 22.929688 -17.863281 24.234375 -17.375 L 24.234375 -12.84375 C 23.722656 -13.125 23.144531 -13.398438 22.5 -13.671875 C 21.851562 -13.941406 21.148438 -14.179688 20.390625 -14.390625 C 19.640625 -14.597656 18.832031 -14.765625 17.96875 -14.890625 C 17.101562 -15.015625 16.191406 -15.078125 15.234375 -15.078125 C 14.046875 -15.078125 13.007812 -14.988281 12.125 -14.8125 C 11.25 -14.644531 10.492188 -14.414062 9.859375 -14.125 C 9.234375 -13.84375 8.71875 -13.507812 8.3125 -13.125 C 7.90625 -12.738281 7.582031 -12.328125 7.34375 -11.890625 C 7.113281 -11.460938 6.953125 -11.023438 6.859375 -10.578125 C 6.773438 -10.128906 6.734375 -9.691406 6.734375 -9.265625 C 6.734375 -8.898438 6.769531 -8.5 6.84375 -8.0625 C 6.914062 -7.632812 7.054688 -7.203125 7.265625 -6.765625 C 7.484375 -6.335938 7.78125 -5.925781 8.15625 -5.53125 C 8.539062 -5.132812 9.035156 -4.78125 9.640625 -4.46875 C 10.242188 -4.164062 10.972656 -3.921875 11.828125 -3.734375 C 12.691406 -3.546875 13.710938 -3.453125 14.890625 -3.453125 C 15.484375 -3.453125 16 -3.46875 16.4375 -3.5 C 16.882812 -3.539062 17.289062 -3.59375 17.65625 -3.65625 C 18.019531 -3.71875 18.359375 -3.796875 18.671875 -3.890625 C 18.992188 -3.984375 19.328125 -4.078125 19.671875 -4.171875 L 19.671875 -6.421875 L 14.046875 -6.421875 L 14.046875 -10.484375 L 24.6875 -10.484375 L 24.6875 -1 C 24.019531 -0.769531 23.273438 -0.5625 22.453125 -0.375 C 21.628906 -0.195312 20.773438 -0.046875 19.890625 0.078125 C 19.015625 0.210938 18.132812 0.316406 17.25 0.390625 C 16.375 0.460938 15.539062 0.5 14.75 0.5 C 13.539062 0.5 12.375 0.414062 11.25 0.25 C 10.132812 0.09375 9.09375 -0.148438 8.125 -0.484375 C 7.15625 -0.828125 6.269531 -1.257812 5.46875 -1.78125 C 4.675781 -2.300781 4 -2.921875 3.4375 -3.640625 C 2.875 -4.367188 2.4375 -5.195312 2.125 -6.125 C 1.8125 -7.0625 1.65625 -8.109375 1.65625 -9.265625 C 1.65625 -10.421875 1.816406 -11.46875 2.140625 -12.40625 C 2.472656 -13.34375 2.925781 -14.171875 3.5 -14.890625 C 4.082031 -15.609375 4.78125 -16.226562 5.59375 -16.75 C 6.414062 -17.269531 7.3125 -17.695312 8.28125 -18.03125 C 9.257812 -18.375 10.304688 -18.625 11.421875 -18.78125 C 12.535156 -18.945312 13.679688 -19.03125 14.859375 -19.03125 Z M 14.859375 -19.03125 "/></g></g></g><g fill="#737373" fill-opacity="1"><g transform="translate(721.530529, 165.665544)"><g><path d="M 17.828125 -3.515625 L 7.46875 -3.515625 L 5.734375 0 L 0.140625 0 L 9.84375 -18.5625 L 15.4375 -18.5625 L 25.15625 0 L 19.5625 0 Z M 9.265625 -7.140625 L 16.046875 -7.140625 L 12.671875 -13.96875 Z M 9.265625 -7.140625 "/></g></g></g><g fill="#737373" fill-opacity="1"><g transform="translate(754.204719, 165.665544)"><g><path d="M 7.921875 0 L 2.90625 0 L 2.90625 -18.5625 L 15.46875 -18.5625 C 16.820312 -18.5625 17.96875 -18.421875 18.90625 -18.140625 C 19.851562 -17.867188 20.617188 -17.472656 21.203125 -16.953125 C 21.796875 -16.441406 22.222656 -15.820312 22.484375 -15.09375 C 22.753906 -14.375 22.890625 -13.566406 22.890625 -12.671875 C 22.890625 -11.890625 22.78125 -11.203125 22.5625 -10.609375 C 22.34375 -10.023438 22.046875 -9.523438 21.671875 -9.109375 C 21.296875 -8.691406 20.859375 -8.335938 20.359375 -8.046875 C 19.867188 -7.765625 19.347656 -7.53125 18.796875 -7.34375 L 24.875 0 L 19.015625 0 L 13.390625 -6.84375 L 7.921875 -6.84375 Z M 17.828125 -12.703125 C 17.828125 -13.054688 17.773438 -13.359375 17.671875 -13.609375 C 17.578125 -13.867188 17.410156 -14.078125 17.171875 -14.234375 C 16.941406 -14.390625 16.628906 -14.503906 16.234375 -14.578125 C 15.847656 -14.648438 15.363281 -14.6875 14.78125 -14.6875 L 7.921875 -14.6875 L 7.921875 -10.71875 L 14.78125 -10.71875 C 15.363281 -10.71875 15.847656 -10.753906 16.234375 -10.828125 C 16.628906 -10.898438 16.941406 -11.015625 17.171875 -11.171875 C 17.410156 -11.328125 17.578125 -11.53125 17.671875 -11.78125 C 17.773438 -12.03125 17.828125 -12.335938 17.828125 -12.703125 Z M 17.828125 -12.703125 "/></g></g></g><g fill="#737373" fill-opacity="1"><g transform="translate(787.149114, 165.665544)"><g><path d="M 1.375 0 L 1.375 -4.859375 L 6.5 -4.859375 L 6.5 0 Z M 1.375 0 "/></g></g></g></g></g></svg>